# This file uses centimeters as units for non-parametric coordinates.

mtllib house.mtl
g default
v -0.950000 -0.500000 0.450000
v 0.950000 -0.500000 0.450000
v -0.950000 0.500000 0.450000
v 0.950000 0.500000 0.450000
v -0.950000 0.500000 -0.450000
v 0.950000 0.500000 -0.450000
v -0.950000 -0.500000 -0.450000
v 0.950000 -0.500000 -0.450000
vt 0.375000 0.000000
vt 0.625000 0.000000
vt 0.375000 0.250000
vt 0.625000 0.250000
vt 0.375000 0.500000
vt 0.625000 0.500000
vt 0.375000 0.750000
vt 0.625000 0.750000
vt 0.375000 1.000000
vt 0.625000 1.000000
vt 0.875000 0.000000
vt 0.875000 0.250000
vt 0.125000 0.000000
vt 0.125000 0.250000
vn 0.000000 0.000000 1.000000
vn 0.000000 0.000000 1.000000
vn 0.000000 0.000000 1.000000
vn 0.000000 0.000000 1.000000
vn 0.000000 1.000000 0.000000
vn 0.000000 1.000000 0.000000
vn 0.000000 1.000000 0.000000
vn 0.000000 1.000000 0.000000
vn 0.000000 0.000000 -1.000000
vn 0.000000 0.000000 -1.000000
vn 0.000000 0.000000 -1.000000
vn 0.000000 0.000000 -1.000000
vn 0.000000 -1.000000 0.000000
vn 0.000000 -1.000000 0.000000
vn 0.000000 -1.000000 0.000000
vn 0.000000 -1.000000 0.000000
vn 1.000000 0.000000 0.000000
vn 1.000000 0.000000 0.000000
vn 1.000000 0.000000 0.000000
vn 1.000000 0.000000 0.000000
vn -1.000000 0.000000 0.000000
vn -1.000000 0.000000 0.000000
vn -1.000000 0.000000 0.000000
vn -1.000000 0.000000 0.000000
s off
g pCube1
usemtl initialShadingGroup
f 1/1/1 2/2/2 4/4/3 3/3/4
f 3/3/5 4/4/6 6/6/7 5/5/8
f 5/5/9 6/6/10 8/8/11 7/7/12
f 7/7/13 8/8/14 2/10/15 1/9/16
f 2/2/17 8/11/18 6/12/19 4/4/20
f 7/13/21 1/1/22 3/3/23 5/14/24
g default
v -1.000000 0.396696 0.500000
v 1.000000 0.396696 0.500000
v -1.000000 0.613928 0.500000
v 1.000000 0.613928 0.500000
v -1.000000 0.613928 -0.500000
v 1.000000 0.613928 -0.500000
v -1.000000 0.396696 -0.500000
v 1.000000 0.396696 -0.500000
v 0.004567 1.056746 -0.500000
v 0.004567 0.396696 -0.500000
v 0.004567 0.396696 0.500000
v 0.004567 1.056746 0.500000
v 0.569633 0.817976 -0.500000
v 0.569633 0.396696 -0.500000
v 0.569633 0.396696 0.500000
v 0.569633 0.817976 0.500000
v -0.562223 0.817976 -0.500000
v -0.562223 0.396696 -0.500000
v -0.562223 0.396696 0.500000
v -0.562223 0.817976 0.500000
v -1.000000 0.613928 -0.011295
v -1.000000 0.396696 -0.011295
v -0.562223 0.396696 -0.011295
v 0.004567 0.396696 -0.011295
v 0.569633 0.396696 -0.011295
v 1.000000 0.396696 -0.011295
v 1.000000 0.613928 -0.011295
v 0.569633 0.817976 -0.011295
v 0.004567 1.056746 -0.011295
v -0.562223 0.817976 -0.011295
vt 0.375000 0.000000
vt 0.625000 0.000000
vt 0.375000 0.250000
vt 0.625000 0.250000
vt 0.375000 0.500000
vt 0.625000 0.500000
vt 0.375000 0.750000
vt 0.625000 0.750000
vt 0.375000 1.000000
vt 0.625000 1.000000
vt 0.875000 0.000000
vt 0.875000 0.250000
vt 0.125000 0.000000
vt 0.125000 0.250000
vt 0.500571 0.500000
vt 0.500571 0.750000
vt 0.500571 0.000000
vt 0.500571 1.000000
vt 0.500571 0.250000
vt 0.571204 0.500000
vt 0.571204 0.750000
vt 0.571204 0.000000
vt 0.571204 1.000000
vt 0.571204 0.250000
vt 0.429722 0.500000
vt 0.429722 0.750000
vt 0.429722 0.000000
vt 0.429722 1.000000
vt 0.429722 0.250000
vt 0.247176 0.250000
vt 0.375000 0.377824
vt 0.247176 0.000000
vt 0.375000 0.872176
vt 0.429722 0.872176
vt 0.500571 0.872176
vt 0.571204 0.872176
vt 0.625000 0.872176
vt 0.752824 0.000000
vt 0.625000 0.377824
vt 0.752824 0.250000
vt 0.571204 0.377824
vt 0.500571 0.377824
vt 0.429722 0.377824
vn 0.000000 0.000000 1.000000
vn 0.000000 0.000000 1.000000
vn 0.000000 0.000000 1.000000
vn 0.000000 0.000000 1.000000
vn -0.422464 0.906380 0.000000
vn -0.422464 0.906380 0.000000
vn -0.422464 0.906380 0.000000
vn -0.422464 0.906380 0.000000
vn 0.000000 0.000000 -1.000000
vn 0.000000 0.000000 -1.000000
vn 0.000000 0.000000 -1.000000
vn 0.000000 0.000000 -1.000000
vn 0.000000 -1.000000 0.000000
vn 0.000000 -1.000000 0.000000
vn 0.000000 -1.000000 0.000000
vn 0.000000 -1.000000 0.000000
vn 1.000000 0.000000 0.000000
vn 1.000000 0.000000 0.000000
vn 1.000000 0.000000 0.000000
vn 1.000000 0.000000 0.000000
vn -1.000000 0.000000 0.000000
vn -1.000000 0.000000 0.000000
vn -1.000000 0.000000 0.000000
vn -1.000000 0.000000 0.000000
vn 0.000000 0.000000 -1.000000
vn 0.000000 0.000000 -1.000000
vn 0.000000 0.000000 -1.000000
vn 0.000000 0.000000 -1.000000
vn 0.000000 -1.000000 0.000000
vn 0.000000 -1.000000 0.000000
vn 0.000000 -1.000000 0.000000
vn 0.000000 -1.000000 0.000000
vn 0.000000 0.000000 1.000000
vn 0.000000 0.000000 1.000000
vn 0.000000 0.000000 1.000000
vn 0.000000 0.000000 1.000000
vn 0.389231 0.921140 0.000000
vn 0.389231 0.921140 0.000000
vn 0.389231 0.921140 0.000000
vn 0.389231 0.921140 0.000000
vn 0.000000 0.000000 -1.000000
vn 0.000000 0.000000 -1.000000
vn 0.000000 0.000000 -1.000000
vn 0.000000 0.000000 -1.000000
vn 0.000000 -1.000000 0.000000
vn 0.000000 -1.000000 0.000000
vn 0.000000 -1.000000 0.000000
vn 0.000000 -1.000000 0.000000
vn 0.000000 0.000000 1.000000
vn 0.000000 0.000000 1.000000
vn 0.000000 0.000000 1.000000
vn 0.000000 0.000000 1.000000
vn 0.428412 0.903584 0.000000
vn 0.428412 0.903584 0.000000
vn 0.428412 0.903584 0.000000
vn 0.428412 0.903584 0.000000
vn 0.000000 0.000000 -1.000000
vn 0.000000 0.000000 -1.000000
vn 0.000000 0.000000 -1.000000
vn 0.000000 0.000000 -1.000000
vn 0.000000 -1.000000 0.000000
vn 0.000000 -1.000000 0.000000
vn 0.000000 -1.000000 0.000000
vn 0.000000 -1.000000 0.000000
vn 0.000000 0.000000 1.000000
vn 0.000000 0.000000 1.000000
vn 0.000000 0.000000 1.000000
vn 0.000000 0.000000 1.000000
vn -0.388225 0.921564 0.000000
vn -0.388225 0.921564 0.000000
vn -0.388225 0.921564 0.000000
vn -0.388225 0.921564 0.000000
vn -1.000000 0.000000 0.000000
vn -1.000000 0.000000 0.000000
vn -1.000000 0.000000 0.000000
vn -1.000000 0.000000 0.000000
vn 0.000000 -1.000000 0.000000
vn 0.000000 -1.000000 0.000000
vn 0.000000 -1.000000 0.000000
vn 0.000000 -1.000000 0.000000
vn 0.000000 -1.000000 0.000000
vn 0.000000 -1.000000 0.000000
vn 0.000000 -1.000000 0.000000
vn 0.000000 -1.000000 0.000000
vn 0.000000 -1.000000 0.000000
vn 0.000000 -1.000000 0.000000
vn 0.000000 -1.000000 0.000000
vn 0.000000 -1.000000 0.000000
vn 0.000000 -1.000000 0.000000
vn 0.000000 -1.000000 0.000000
vn 0.000000 -1.000000 0.000000
vn 0.000000 -1.000000 0.000000
vn 1.000000 0.000000 0.000000
vn 1.000000 0.000000 0.000000
vn 1.000000 0.000000 0.000000
vn 1.000000 0.000000 0.000000
vn 0.428412 0.903584 0.000000
vn 0.428412 0.903584 0.000000
vn 0.428412 0.903584 0.000000
vn 0.428412 0.903584 0.000000
vn 0.389231 0.921140 0.000000
vn 0.389231 0.921140 0.000000
vn 0.389231 0.921140 0.000000
vn 0.389231 0.921140 0.000000
vn -0.388226 0.921564 0.000000
vn -0.388226 0.921564 0.000000
vn -0.388226 0.921564 0.000000
vn -0.388226 0.921564 0.000000
vn -0.422464 0.906380 0.000000
vn -0.422464 0.906380 0.000000
vn -0.422464 0.906380 0.000000
vn -0.422464 0.906380 0.000000
s off
g pCube2
usemtl initialShadingGroup
f 9/15/25 27/41/26 28/43/27 11/17/28
f 11/17/29 28/43/30 38/57/31 29/45/32
f 13/19/33 25/39/34 26/40/35 15/21/36
f 30/47/37 31/48/38 27/42/39 9/23/40
f 10/16/41 34/52/42 35/54/43 12/18/44
f 30/46/45 9/15/46 11/17/47 29/44/48
f 17/29/49 21/34/50 22/35/51 18/30/52
f 19/32/53 32/49/54 33/50/55 23/37/56
f 20/33/57 19/31/58 23/36/59 24/38/60
f 37/56/61 20/33/62 24/38/63 36/55/64
f 21/34/65 14/20/66 16/22/67 22/35/68
f 23/37/69 33/50/70 34/51/71 10/24/72
f 24/38/73 23/36/74 10/16/75 12/18/76
f 36/55/77 24/38/78 12/18/79 35/53/80
f 25/39/81 17/29/82 18/30/83 26/40/84
f 27/42/85 31/48/86 32/49/87 19/32/88
f 28/43/89 27/41/90 19/31/91 20/33/92
f 38/57/93 28/43/94 20/33/95 37/56/96
f 15/27/97 30/46/98 29/44/99 13/28/100
f 15/21/101 26/40/102 31/48/103 30/47/104
f 32/49/105 31/48/106 26/40/107 18/30/108
f 33/50/109 32/49/110 18/30/111 22/35/112
f 34/51/113 33/50/114 22/35/115 16/22/116
f 35/54/117 34/52/118 16/25/119 14/26/120
f 21/34/121 36/55/122 35/53/123 14/20/124
f 17/29/125 37/56/126 36/55/127 21/34/128
f 25/39/129 38/57/130 37/56/131 17/29/132
f 29/45/133 38/57/134 25/39/135 13/19/136
